# Blender v2.79 (sub 0) OBJ File: 'sharkAvatar.blend'
# www.blender.org
mtllib sharkAvatar.mtl
o Cube
v 0.958044 -0.591910 -0.699086
v 0.982333 -0.557398 0.685819
v -0.934031 -0.567751 0.697990
v -0.927270 -0.591904 -0.704697
v 1.117951 0.872387 -0.665980
v 0.815692 0.809286 0.704253
v -0.990767 0.904529 0.971107
v -0.971687 0.967889 -0.938477
v -1.974519 -0.242252 0.435814
v -2.236965 -0.181816 -0.247930
v -1.950921 0.769359 0.721177
v -2.323053 0.859875 -0.392543
v -2.536315 -0.421775 1.177244
v -3.221596 -0.274690 0.411721
v -2.345340 0.747552 1.327384
v -3.307057 0.864437 0.293839
v -3.398164 -0.658976 1.418858
v -3.717801 -0.652657 1.090518
v -3.308937 1.043787 1.494769
v -3.639338 1.088433 1.104633
v -3.366363 -0.469113 1.541747
v -3.741598 -0.411955 1.111329
v -3.292405 0.213459 0.345051
v -2.401449 0.049102 1.455916
v -3.640802 0.844075 1.085203
v -3.317635 0.806503 1.395297
v 2.626250 -0.639930 -0.145132
v 2.577492 -0.618055 0.451987
v 2.968237 0.994902 -0.190179
v 2.959248 0.991562 0.348206
v 1.187168 0.007615 0.831698
v 2.964403 0.719083 0.357204
v 2.964403 0.706934 -0.208702
v 1.187169 -0.021270 -0.825844
v 2.630767 -0.341857 0.464903
v 2.683611 -0.373498 -0.162783
v 0.348256 0.995257 -0.927927
v 0.327831 0.957923 0.962009
v -0.871006 1.060615 0.410019
v 0.276014 1.062004 0.421768
v -0.869510 1.065066 -0.348464
v 0.279445 1.064255 -0.328465
v -0.384769 1.942405 0.091800
v -0.208200 1.942405 0.093801
v -0.384751 1.942405 -0.013639
v -0.207738 1.942405 -0.010182
v 0.955450 0.366649 0.991002
v -0.865545 0.308766 1.065776
v -0.862983 -0.324445 1.052444
v 0.962435 -0.329609 0.983772
v 0.424063 0.285515 1.063995
v 0.440307 -0.285586 1.063995
v -0.399513 -0.090241 1.938587
v -0.399865 0.064761 1.938587
v -0.063805 0.068633 1.938587
v -0.059048 -0.083778 1.938587
v 0.960410 0.437154 -0.981477
v -0.869652 0.388092 -1.071456
v -0.868074 -0.295533 -1.060966
v 0.954430 -0.342088 -0.985149
v 0.383124 0.362898 -1.071763
v 0.391706 -0.275424 -1.071763
v -0.432174 -0.050337 -2.052521
v -0.432382 0.128791 -2.052521
v -0.084018 0.132164 -2.052521
v -0.081340 -0.049865 -2.052521
vt 0.787600 0.561553
vt 0.612304 0.565788
vt 0.611242 0.344892
vt 0.788197 0.346478
vt 0.193825 0.216641
vt 0.218108 0.287231
vt 0.149410 0.287825
vt 0.060290 0.288595
vt 0.000694 0.289369
vt 0.013898 0.229180
vt 0.445544 0.553117
vt 0.500919 0.561130
vt 0.539083 0.562215
vt 0.513865 0.784997
vt 0.485479 0.784189
vt 0.603236 0.564690
vt 0.574933 0.563234
vt 0.577331 0.513320
vt 0.585603 0.341144
vt 0.611242 0.343999
vt 0.000000 0.445527
vt 0.062468 0.444852
vt 0.152939 0.444502
vt 0.218108 0.442653
vt 0.196824 0.568384
vt 0.027270 0.584313
vt 0.410120 0.559835
vt 0.359585 0.557002
vt 0.355310 0.499246
vt 0.343176 0.335327
vt 0.407041 0.332902
vt 0.415623 0.487954
vt 0.212224 0.661957
vt 0.024179 0.657918
vt 0.261940 0.340519
vt 0.228721 0.346455
vt 0.257827 0.216290
vt 0.386825 0.208932
vt 0.655231 0.220208
vt 0.735952 0.217654
vt 0.509729 0.338987
vt 0.443928 0.336399
vt 0.455309 0.198695
vt 0.581813 0.219021
vt 0.385013 0.114751
vt 0.313018 0.094141
vt 0.388529 0.020910
vt 0.415623 0.019178
vt 0.443047 0.124997
vt 0.526228 0.111318
vt 0.581347 0.104295
vt 0.260162 0.100770
vt 0.631589 0.106475
vt 0.763089 0.103742
vt 0.940381 0.754082
vt 0.911577 0.754032
vt 0.911434 0.691735
vt 0.940381 0.691785
vt 0.669131 0.000000
vt 0.729481 0.000000
vt 0.150592 0.759290
vt 0.097784 0.759495
vt 0.582315 0.000000
vt 0.611242 0.000822
vt 0.816408 0.052605
vt 0.815431 0.107112
vt 0.788197 0.106478
vt 0.789299 0.051973
vt 0.247031 0.000000
vt 0.218108 0.001848
vt 0.442981 0.026832
vt 0.415623 0.026054
vt 0.792700 0.354326
vt 0.788197 0.292201
vt 0.893155 0.205312
vt 0.893155 0.411011
vt 0.895208 0.000000
vt 0.895208 0.205312
vt 0.928379 0.191034
vt 0.896647 0.191034
vt 0.895208 0.122245
vt 0.928507 0.122245
vt 0.242982 0.560975
vt 0.276267 0.562327
vt 0.307860 0.560308
vt 0.315484 0.758599
vt 0.283743 0.760627
vt 0.731636 0.762332
vt 0.664995 0.762332
vt 0.074459 0.000222
vt 0.131808 0.000000
vt 0.611244 0.908508
vt 0.611242 0.839741
vt 0.800606 0.762332
vt 0.800606 0.984699
vt 0.538456 0.760522
vt 0.571936 0.761474
vt 0.357194 0.909315
vt 0.358433 0.968518
vt 0.328851 0.968518
vt 0.328961 0.909315
vt 0.340052 0.782610
vt 0.369643 0.780719
vt 0.214519 0.759495
vt 0.214519 0.981945
vt 0.000002 0.894515
vt 0.000000 0.835308
vt 0.609661 0.785052
vt 0.609661 0.793865
vt 0.604636 0.793834
vt 0.604560 0.784996
vt 0.998691 0.205312
vt 0.998691 0.362061
vt 0.893155 0.286335
vt 0.893155 0.277495
vt 0.985680 0.122245
vt 0.895208 0.122245
vt 0.935966 0.000000
vt 0.941067 0.000000
vt 1.000000 0.885122
vt 0.910873 0.885122
vt 0.952744 0.762332
vt 0.957770 0.762332
vt 0.523256 0.784996
vt 0.523256 0.941146
vt 0.415623 0.869538
vt 0.415623 0.860733
vt 0.503001 0.508622
vt 0.437076 0.492474
vt 0.372242 0.909315
vt 0.372242 0.940684
vt 0.358692 0.940522
vt 0.358433 0.909629
vt 0.328851 0.782610
vt 0.328851 0.952382
vt 0.218108 0.881648
vt 0.218108 0.850755
vt 0.910873 0.762332
vt 0.910873 0.934818
vt 0.800606 0.864683
vt 0.800606 0.833296
vt 0.986424 1.000000
vt 0.910873 1.000000
vt 0.950593 0.885122
vt 0.964341 0.885122
vt 0.985755 0.691735
vt 0.911434 0.691735
vt 0.934422 0.576803
vt 0.947946 0.576803
vt 0.788197 0.576803
vt 0.788197 0.411011
vt 0.911966 0.477826
vt 0.911966 0.511444
vt 0.272622 0.505896
vt 0.893468 0.395588
vt 0.893155 0.362254
vt 0.909972 0.362061
vt 0.909972 0.395669
vt 0.604560 0.911757
vt 0.523256 0.911757
vt 0.547609 0.784996
vt 0.564095 0.784996
vt 0.411768 0.909315
vt 0.328851 0.909315
vt 0.369844 0.782610
vt 0.386657 0.782610
vt 0.911434 0.576803
vt 0.911434 0.741202
vt 0.788197 0.676890
vt 0.788197 0.643554
vn 0.0028 -0.9998 0.0210
vn 0.2907 0.9556 0.0482
vn 0.2283 0.2095 0.9508
vn 0.0142 -0.8117 0.5838
vn -0.1749 0.9829 0.0577
vn 0.0862 0.2709 -0.9588
vn 0.0492 0.9966 0.0657
vn -0.4687 -0.1446 -0.8714
vn -0.2971 -0.9546 0.0198
vn -0.4039 -0.2027 0.8920
vn -0.9208 -0.0274 -0.3890
vn 0.8645 -0.1886 0.4660
vn -0.5427 -0.1421 -0.8278
vn 0.0288 -0.9867 -0.1601
vn -0.7304 -0.2040 0.6518
vn 0.2043 -0.9260 -0.3175
vn 0.2749 0.9510 -0.1416
vn 0.3621 -0.5491 0.7532
vn -0.7316 -0.1488 0.6653
vn -0.7814 -0.1397 -0.6082
vn 0.0712 0.0260 0.9971
vn -0.3911 0.8096 0.4376
vn -0.5769 -0.7171 0.3911
vn 0.9761 -0.1982 0.0896
vn 0.3745 -0.2868 -0.8818
vn -0.0360 -0.9990 0.0280
vn -0.0767 0.9968 0.0222
vn 0.2340 0.9720 -0.0203
vn 0.2394 -0.2579 0.9360
vn 1.0000 0.0022 0.0081
vn 0.3126 0.1624 -0.9359
vn 0.3748 -0.9270 0.0171
vn 0.0000 1.0000 0.0000
vn -0.0219 0.9733 0.2286
vn 0.0168 0.3487 -0.9371
vn -0.0089 0.9904 -0.1381
vn -0.8755 0.4832 0.0010
vn 0.8753 0.4835 0.0053
vn -0.0101 0.3443 0.9388
vn 0.0883 0.2169 0.9722
vn 0.0000 0.0000 1.0000
vn 0.0118 0.9668 0.2552
vn 0.2412 -0.0030 0.9705
vn 0.0251 -0.9703 0.2408
vn -0.8842 -0.0112 0.4670
vn 0.8705 0.0253 0.4915
vn 0.0109 -0.9726 -0.2323
vn 0.0048 -0.7628 -0.6467
vn 0.2439 0.0022 -0.9698
vn 0.0000 0.0000 -1.0000
vn -0.9144 -0.0068 -0.4047
vn 0.9017 0.0124 -0.4322
vn 0.0132 0.9701 -0.2425
usemtl Material
s off
f 1/1/1 2/2/1 3/3/1 4/4/1
f 5/5/2 37/6/2 42/7/2 40/8/2 38/9/2 6/10/2
f 6/11/3 47/12/3 31/13/3 32/14/3 30/15/3
f 2/16/4 50/17/4 52/18/4 49/19/4 3/20/4
f 7/21/5 39/22/5 41/23/5 8/24/5 12/25/5 11/26/5
f 5/27/6 57/28/6 61/29/6 58/30/6 8/31/6 37/32/6
f 11/26/7 12/25/7 16/33/7 15/34/7
f 8/31/8 58/30/8 59/35/8 4/36/8 10/37/8 12/38/8
f 4/4/9 3/3/9 9/39/9 10/40/9
f 3/20/10 49/19/10 48/41/10 7/42/10 11/43/10 9/44/10
f 16/45/11 23/46/11 25/47/11 20/48/11
f 9/44/12 11/43/12 15/49/12 24/50/12 13/51/12
f 12/38/13 10/37/13 14/52/13 23/46/13 16/45/13
f 10/40/14 9/39/14 13/53/14 14/54/14
f 17/55/15 21/56/15 22/57/15 18/58/15
f 14/54/16 13/53/16 17/59/16 18/60/16
f 15/34/17 16/33/17 20/61/17 19/62/17
f 13/51/18 24/50/18 21/63/18 17/64/18
f 25/65/19 26/66/19 19/67/19 20/68/19
f 22/69/20 23/46/20 14/52/20 18/70/20
f 26/71/21 24/50/21 15/49/21 19/72/21
f 22/73/22 21/74/22 24/75/22 23/76/22
f 23/77/23 24/78/23 26/66/23 25/65/23
f 27/79/24 36/80/24 35/81/24 28/82/24
f 1/83/25 60/84/25 34/85/25 36/86/25 27/87/25
f 2/2/26 1/1/26 27/88/26 28/89/26
f 5/5/27 6/10/27 30/90/27 29/91/27
f 35/92/28 36/93/28 34/94/28 31/95/28
f 35/96/29 31/13/29 50/17/29 2/16/29 28/97/29
f 32/98/30 33/99/30 29/100/30 30/101/30
f 33/102/31 34/85/31 57/28/31 5/27/31 29/103/31
f 31/104/32 34/105/32 33/106/32 32/107/32
f 43/108/33 44/109/33 46/110/33 45/111/33
f 38/9/34 40/8/34 39/22/34 7/21/34
f 42/112/35 41/113/35 45/114/35 46/115/35
f 41/23/36 42/7/36 37/6/36 8/24/36
f 41/116/37 39/117/37 43/118/37 45/119/37
f 40/120/38 42/121/38 46/122/38 44/123/38
f 39/124/39 40/125/39 44/126/39 43/127/39
f 48/41/40 51/128/40 47/12/40 6/11/40 38/129/40 7/42/40
f 53/130/41 56/131/41 55/132/41 54/133/41
f 51/134/42 48/135/42 54/136/42 55/137/42
f 51/128/43 52/18/43 50/17/43 31/13/43 47/12/43
f 49/138/44 52/139/44 56/140/44 53/141/44
f 48/142/45 49/143/45 53/144/45 54/145/45
f 52/146/46 51/147/46 55/148/46 56/149/46
f 62/150/47 59/151/47 63/152/47 66/153/47
f 59/35/48 62/154/48 60/84/48 1/83/48 4/36/48
f 62/154/49 61/29/49 57/28/49 34/85/49 60/84/49
f 64/155/50 65/156/50 66/157/50 63/158/50
f 59/159/51 58/160/51 64/161/51 63/162/51
f 61/163/52 62/164/52 66/165/52 65/166/52
f 58/167/53 61/168/53 65/169/53 64/170/53
l 23 17
l 6 23
l 16 26
